<?xml version="1.0" encoding="utf-8"?>
<!-- Generator: Adobe Illustrator 12.0.0, SVG Export Plug-In . SVG Version: 6.00 Build 51448)  -->
<!DOCTYPE svg PUBLIC "-//W3C//DTD SVG 1.1//EN" "http://www.w3.org/Graphics/SVG/1.1/DTD/svg11.dtd" [
	<!ENTITY ns_svg "http://www.w3.org/2000/svg">
	<!ENTITY ns_xlink "http://www.w3.org/1999/xlink">
]>
<svg  version="1.1" xmlns="&ns_svg;" xmlns:xlink="&ns_xlink;" width="294.73" height="61.563" viewBox="0 0 294.73 61.563"
	 overflow="visible" enable-background="new 0 0 294.73 61.563" xml:space="preserve">
<g id="レイヤー_1">
	<g>
		<path fill="#00A33D" d="M66.246,9.908c2.063,1.219,3.756,2.432,5.08,3.639c0.117,0.082,0.176,0.188,0.176,0.316
			c0,0.117-0.059,0.252-0.176,0.404l-1.617,2.145c-0.176,0.246-0.311,0.369-0.404,0.369c-0.047,0-0.152-0.059-0.316-0.176
			c-1.43-1.465-3.1-2.777-5.01-3.938c-0.164-0.094-0.246-0.188-0.246-0.281c0-0.082,0.07-0.211,0.211-0.387l1.582-1.916
			c0.152-0.188,0.287-0.281,0.404-0.281C66.011,9.803,66.117,9.838,66.246,9.908z M63.978,30.842
			c0.668-0.984,1.195-1.91,1.582-2.777c1.207-2.613,2.244-5.555,3.111-8.824c0.539,0.586,1.207,1.148,2.004,1.688
			c0.574,0.387,0.861,0.691,0.861,0.914c0,0.129-0.059,0.404-0.176,0.826c-0.633,2.543-1.594,5.285-2.883,8.227
			c-0.316,0.773-0.48,1.254-0.492,1.441c-0.047,0.363-0.182,0.545-0.404,0.545c-0.199,0-0.428-0.07-0.686-0.211
			C65.958,32.178,64.986,31.568,63.978,30.842z M78.005,4.898l-5.01,0.07c-0.152,0-0.264-0.012-0.334-0.035l-1.758,2.37
			c-0.176,0.223-0.299,0.333-0.369,0.333c-0.047,0-0.152-0.059-0.316-0.176c-1.605-1.688-3.211-2.994-4.816-3.92
			c-0.164-0.094-0.246-0.176-0.246-0.246c0-0.082,0.076-0.217,0.229-0.404l1.635-1.846c0.152-0.176,0.281-0.264,0.387-0.264
			c0.07,0,0.17,0.029,0.299,0.088c1.582,0.891,3.211,2.104,4.887,3.639V1.945c0-0.187,0.023-0.298,0.07-0.333
			s0.158-0.053,0.334-0.053l5.01,0.07h13.131l5.01-0.07c0.234,0,0.352,0.129,0.352,0.387v2.637c0,0.258-0.117,0.387-0.352,0.387
			l-5.01-0.07H88.57v3.66h1.107l4.904-0.07c0.211,0,0.34,0.023,0.387,0.07c0.035,0.047,0.053,0.158,0.053,0.334l-0.07,6.977v6.643
			l0.07,9.982c0,0.188-0.029,0.305-0.088,0.352c-0.047,0.035-0.158,0.053-0.334,0.053h-2.707c-0.199,0-0.316-0.029-0.352-0.088
			c-0.035-0.035-0.053-0.141-0.053-0.316v-1.588H77.531v1.692c0,0.176-0.029,0.282-0.088,0.317
			c-0.047,0.035-0.164,0.053-0.352,0.053h-2.654c-0.211,0-0.34-0.023-0.387-0.07c-0.035-0.047-0.053-0.146-0.053-0.299l0.07-10.052
			V16.66l-0.07-7.768c0-0.199,0.029-0.316,0.088-0.352c0.047-0.035,0.164-0.053,0.352-0.053l4.852,0.07h0.721v-3.66H78.005z
			 M82.699,15.947c-0.445,1.831-1.125,3.327-2.039,4.488c-0.328,0.435-0.568,0.651-0.721,0.651c-0.141,0-0.416-0.205-0.826-0.615
			c-0.375-0.375-0.902-0.768-1.582-1.178v3.085h13.957v-3.012c-0.574,0.047-1.465,0.07-2.672,0.07c-1.359,0-2.256-0.182-2.689-0.546
			c-0.504-0.388-0.756-1.104-0.756-2.149v-5.055h-2.162C83.173,13.248,83.003,14.668,82.699,15.947z M77.531,11.688v7.254
			c0.996-1.197,1.664-2.4,2.004-3.609c0.234-0.774,0.393-1.99,0.475-3.645H77.531z M77.531,27.777h13.957v-2.34H77.531V27.777z
			 M83.208,8.559h2.162v-3.66h-2.162V8.559z M91.488,11.688h-2.953v3.14c0,0.646,0.07,1.058,0.211,1.234
			c0.152,0.188,0.527,0.282,1.125,0.282c0.668,0,1.207-0.012,1.617-0.035V11.688z"/>
		<path fill="#00A33D" d="M107.85,21.906l-4.43,0.07c-0.234,0-0.352-0.129-0.352-0.387v-2.971c0-0.258,0.117-0.387,0.352-0.387
			l4.43,0.07h3.85c0.105-1.345,0.158-2.9,0.158-4.666v-2.543h-1.986l-4.746,0.07c-0.211,0-0.34-0.023-0.387-0.07
			c-0.035-0.047-0.053-0.158-0.053-0.334V7.842c0-0.199,0.029-0.322,0.088-0.369c0.047-0.035,0.164-0.053,0.352-0.053l4.746,0.07
			h1.986V6.05c0-2.202-0.1-3.976-0.299-5.323c1.559,0.035,2.9,0.117,4.025,0.246c0.434,0.035,0.65,0.193,0.65,0.474
			c0,0.105-0.094,0.393-0.281,0.861c-0.141,0.375-0.211,1.623-0.211,3.742v1.44h7.629V6.085c0-2.026-0.094-3.836-0.281-5.429
			c1.5,0.035,2.842,0.105,4.025,0.211c0.387,0.047,0.58,0.193,0.58,0.439c0,0.117-0.07,0.369-0.211,0.755
			c-0.152,0.34-0.229,1.657-0.229,3.953V7.49h1.688l4.799-0.07c0.188,0,0.299,0.023,0.334,0.07c0.035,0.059,0.053,0.176,0.053,0.352
			v2.918c0,0.199-0.023,0.316-0.07,0.352s-0.152,0.053-0.316,0.053l-4.799-0.07h-1.688v7.209h3.428l4.412-0.07
			c0.246,0,0.369,0.129,0.369,0.387v2.971c0,0.258-0.123,0.387-0.369,0.387l-4.412-0.07h-3.428v4.538l0.07,6.121
			c0,0.188-0.023,0.305-0.07,0.352c-0.047,0.035-0.152,0.053-0.316,0.053h-3.252c-0.188,0-0.299-0.023-0.334-0.07
			s-0.053-0.158-0.053-0.334l0.07-6.121v-4.538h-8.174c-0.152,0.75-0.334,1.46-0.545,2.128c-1.055,3.506-3.264,6.326-6.627,8.46
			c-0.445,0.27-0.732,0.404-0.861,0.404s-0.393-0.252-0.791-0.756c-0.539-0.774-1.271-1.46-2.197-2.058
			c3.609-1.7,5.889-4.174,6.838-7.422c0.094-0.27,0.158-0.522,0.193-0.756H107.85z M115.637,18.303h7.734v-7.209h-7.629v2.508
			C115.743,15.73,115.708,17.297,115.637,18.303z"/>
		<path fill="#00A33D" d="M147.205,11.031l-4.535,0.07c-0.188,0-0.299-0.023-0.334-0.07s-0.053-0.152-0.053-0.316V8.184
			c0-0.188,0.023-0.299,0.07-0.334s0.152-0.053,0.316-0.053l4.535,0.07h0.914V5.882c0-1.862-0.1-3.191-0.299-3.988
			c1.5,0.047,2.795,0.135,3.885,0.264c0.41,0.035,0.615,0.176,0.615,0.421c0,0.211-0.082,0.451-0.246,0.72
			c-0.141,0.234-0.211,0.891-0.211,1.968v2.6h4.816V4.057c0-1.932-0.082-3.284-0.246-4.057c1.418,0.07,2.701,0.176,3.85,0.316
			c0.387,0.082,0.58,0.205,0.58,0.369c0,0.163-0.076,0.384-0.229,0.664c-0.141,0.233-0.211,0.734-0.211,1.502h5.502l4.5-0.07
			c0.246,0,0.369,0.129,0.369,0.387v2.32c0,0.258-0.123,0.387-0.369,0.387l-4.5-0.07h-5.502v2.063h8.789l4.535-0.07
			c0.188,0,0.299,0.023,0.334,0.07s0.053,0.152,0.053,0.316v2.531c0,0.188-0.023,0.299-0.07,0.334s-0.152,0.053-0.316,0.053
			l-4.535-0.07H147.205z M168.386,12.613c1.418,0.047,2.66,0.135,3.727,0.264c0.316,0.035,0.475,0.164,0.475,0.387
			c0,0.141-0.07,0.381-0.211,0.721c-0.094,0.293-0.141,1.096-0.141,2.408v10.476l0.07,5.871c0,0.188-0.023,0.299-0.07,0.334
			s-0.152,0.053-0.316,0.053h-2.936c-0.188,0-0.299-0.023-0.334-0.07c-0.035-0.047-0.053-0.152-0.053-0.315v-1.365h-20.883v1.295
			c0,0.198-0.023,0.32-0.07,0.367c-0.047,0.035-0.158,0.053-0.334,0.053h-2.883c-0.188,0-0.299-0.023-0.334-0.07
			s-0.053-0.164-0.053-0.352l0.07-5.695V16.357c0-1.441-0.082-2.701-0.246-3.779c1.418,0.035,2.66,0.123,3.727,0.264
			c0.316,0.023,0.475,0.152,0.475,0.387c0,0.118-0.07,0.346-0.211,0.686c-0.094,0.293-0.141,1.108-0.141,2.444v11.852h20.883V16.429
			C168.597,14.812,168.527,13.54,168.386,12.613z M154.025,20.273l-4.535,0.07c-0.246,0-0.369-0.135-0.369-0.404v-1.934
			c0-0.27,0.123-0.404,0.369-0.404l4.535,0.07h2.479v-1.727c0-1.081-0.07-2.42-0.211-4.018c1.16,0.035,2.215,0.112,3.164,0.229
			c0.363,0.035,0.545,0.165,0.545,0.388c0,0.035-0.076,0.335-0.229,0.898c-0.094,0.388-0.141,1.222-0.141,2.502v1.727h2.637
			l4.57-0.07c0.234,0,0.352,0.135,0.352,0.404v1.934c0,0.27-0.117,0.404-0.352,0.404l-4.57-0.07h-0.949
			c1.559,1.722,3.779,3.051,6.662,3.988c-0.492,0.457-0.961,1.066-1.406,1.827c-0.27,0.48-0.521,0.72-0.756,0.72
			c-0.164,0-0.428-0.105-0.791-0.316c-2.391-1.3-4.225-2.822-5.502-4.567c0.023,0.925,0.064,2.079,0.123,3.46
			c0.035,0.925,0.053,1.464,0.053,1.616c0,0.176-0.021,0.284-0.062,0.325s-0.149,0.062-0.325,0.062h-2.496
			c-0.188,0-0.299-0.023-0.334-0.07s-0.053-0.152-0.053-0.316c0-0.07,0.023-0.726,0.07-1.968c0.035-1.136,0.059-2.172,0.07-3.109
			c-1.406,1.968-3.205,3.49-5.396,4.567c-0.48,0.234-0.791,0.352-0.932,0.352c-0.176,0-0.404-0.228-0.686-0.685
			c-0.363-0.621-0.809-1.136-1.336-1.546c2.766-1.077,4.916-2.523,6.451-4.339H154.025z M153.005,12.579
			c0.527,0.682,1.125,1.692,1.793,3.032c0.059,0.129,0.088,0.223,0.088,0.282c0,0.118-0.135,0.241-0.404,0.371l-1.652,0.828
			c-0.188,0.094-0.328,0.141-0.422,0.141c-0.141,0-0.264-0.117-0.369-0.353c-0.551-1.21-1.131-2.244-1.74-3.102
			c-0.07-0.117-0.105-0.206-0.105-0.265c0-0.082,0.123-0.188,0.369-0.317l1.723-0.828c0.152-0.07,0.27-0.106,0.352-0.106
			C152.742,12.262,152.865,12.368,153.005,12.579z M161.25,16.298c0.75-1.011,1.342-1.91,1.775-2.697
			c0.234-0.47,0.398-0.928,0.492-1.375c1.043,0.364,1.881,0.688,2.514,0.969c0.293,0.129,0.439,0.265,0.439,0.406
			c0,0.176-0.094,0.341-0.281,0.493c-0.188,0.153-0.369,0.371-0.545,0.652c-0.516,0.787-0.973,1.428-1.371,1.921
			c-0.328,0.411-0.557,0.617-0.686,0.617c-0.117,0-0.404-0.135-0.861-0.405C162.457,16.715,161.964,16.521,161.25,16.298z"/>
		<path fill="#00A33D" d="M192.606,0.557c0.832,0.68,1.588,1.424,2.268,2.232c0.223,0.246,0.334,0.457,0.334,0.633
			c0,0.293-0.217,0.439-0.65,0.439c-0.258,0-0.668,0.105-1.23,0.316c-0.832,0.351-1.752,0.678-2.76,0.981v4.968h0.316l3.955-0.07
			c0.199,0,0.316,0.023,0.352,0.07s0.053,0.158,0.053,0.334v2.549c0,0.188-0.023,0.305-0.07,0.352
			c-0.047,0.035-0.158,0.053-0.334,0.053l-3.885-0.07c1.078,1.955,2.613,3.8,4.605,5.533c-0.539,0.809-0.979,1.729-1.318,2.76
			c-0.105,0.387-0.24,0.58-0.404,0.58c-0.152,0-0.357-0.182-0.615-0.545c-1.148-1.5-2.068-2.994-2.76-4.482l0.211,15.647
			c0,0.234-0.135,0.351-0.404,0.351h-2.953c-0.258,0-0.387-0.117-0.387-0.351c0-0.129,0.018-0.931,0.053-2.406
			c0.117-4.496,0.193-8.658,0.229-12.486c-0.891,2.777-2.297,5.484-4.219,8.121c-0.27,0.387-0.48,0.58-0.633,0.58
			s-0.299-0.205-0.439-0.615c-0.422-1.219-0.914-2.127-1.477-2.725c2.789-2.988,4.781-6.309,5.977-9.962h-0.896l-3.973,0.07
			c-0.188,0-0.299-0.023-0.334-0.07s-0.053-0.158-0.053-0.334v-2.549c0-0.199,0.023-0.316,0.07-0.352s0.152-0.053,0.316-0.053
			l3.973,0.07h1.512V6.053c-0.715,0.152-1.699,0.345-2.953,0.579c-0.363,0.059-0.609,0.087-0.738,0.087
			c-0.223,0-0.393-0.082-0.51-0.246c-0.082-0.105-0.205-0.352-0.369-0.738c-0.305-0.715-0.715-1.365-1.23-1.951
			c4.184-0.502,7.488-1.292,9.914-2.367C191.663,1.171,192.149,0.884,192.606,0.557z M199.304,21.61l6.416-1.246V5.895
			c0-2.049-0.1-3.857-0.299-5.426c1.43,0.035,2.695,0.117,3.797,0.246c0.387,0.035,0.58,0.158,0.58,0.369
			c0,0.223-0.064,0.474-0.193,0.755c-0.141,0.398-0.211,1.727-0.211,3.986V19.61c0.938-0.199,1.775-0.392,2.514-0.579
			c0.105-0.023,0.316-0.076,0.633-0.158c0.129-0.035,0.217-0.059,0.264-0.07c0.082-0.012,0.141-0.018,0.176-0.018
			c0.094,0,0.17,0.129,0.229,0.387l0.457,2.813c0.023,0.082,0.035,0.141,0.035,0.176c0,0.117-0.129,0.199-0.387,0.246
			c-0.035,0.012-0.451,0.088-1.248,0.228c-0.82,0.141-1.711,0.305-2.672,0.492v3.36l0.07,6.262c0,0.188-0.023,0.305-0.07,0.352
			c-0.047,0.035-0.158,0.053-0.334,0.053h-3.059c-0.234,0-0.352-0.135-0.352-0.405l0.07-6.228V23.88l-5.801,1.123l-4.605,0.93
			c-0.082,0.023-0.141,0.035-0.176,0.035c-0.117,0-0.205-0.129-0.264-0.387l-0.492-2.742c-0.023-0.094-0.035-0.17-0.035-0.229
			c0-0.117,0.117-0.199,0.352-0.246c0.047,0,0.516-0.07,1.406-0.211C197.077,22.002,198.144,21.821,199.304,21.61z M198.425,11.095
			c1.793,1.312,3.486,2.88,5.08,4.707c0.117,0.129,0.176,0.234,0.176,0.316c0,0.105-0.094,0.252-0.281,0.439l-1.758,1.826
			c-0.176,0.176-0.311,0.264-0.404,0.264s-0.199-0.059-0.316-0.176c-1.559-1.979-3.211-3.647-4.957-5.005
			c-0.141-0.129-0.211-0.223-0.211-0.281c0-0.082,0.088-0.216,0.264-0.404l1.74-1.616c0.152-0.164,0.27-0.246,0.352-0.246
			C198.179,10.919,198.284,10.978,198.425,11.095z M199.444,2.84c1.863,1.347,3.533,2.852,5.01,4.514
			c0.117,0.152,0.176,0.257,0.176,0.316c0,0.105-0.088,0.229-0.264,0.369l-1.758,1.792c-0.199,0.211-0.328,0.316-0.387,0.316
			s-0.146-0.07-0.264-0.211c-1.418-1.756-3.07-3.325-4.957-4.707c-0.152-0.117-0.229-0.211-0.229-0.281
			c0-0.07,0.1-0.205,0.299-0.404l1.723-1.581c0.164-0.164,0.287-0.246,0.369-0.246C199.222,2.717,199.315,2.758,199.444,2.84z"/>
		<path fill="#00A33D" d="M225.105,5.156v23.002h21.234l4.939-0.07c0.188,0,0.299,0.023,0.334,0.07s0.053,0.158,0.053,0.334v2.848
			c0,0.188-0.023,0.299-0.07,0.334s-0.152,0.053-0.316,0.053l-4.939-0.07h-21.234v1.148c0,0.186-0.023,0.295-0.07,0.331
			c-0.059,0.035-0.182,0.052-0.369,0.052h-3.059c-0.176,0-0.284-0.021-0.325-0.062s-0.062-0.149-0.062-0.325l0.07-7.645V9.584
			l-0.07-7.592c0-0.199,0.023-0.316,0.07-0.352s0.158-0.053,0.333-0.053l4.781,0.07h19.793l4.711-0.07
			c0.199,0,0.316,0.023,0.352,0.07s0.053,0.152,0.053,0.316V4.84c0,0.188-0.023,0.299-0.07,0.334s-0.158,0.053-0.334,0.053
			l-4.711-0.07H225.105z M232.136,18.438l-4.939,0.07c-0.188,0-0.305-0.023-0.352-0.07c-0.035-0.047-0.053-0.152-0.053-0.316v-2.426
			c0-0.234,0.135-0.352,0.404-0.352l4.939,0.07h3.92c0.176-1.084,0.281-2.316,0.316-3.695h-3.955
			c-0.445,0.673-1.072,1.458-1.881,2.355c-0.34,0.39-0.604,0.584-0.791,0.584c-0.152,0-0.451-0.205-0.896-0.616
			c-0.492-0.458-1.137-0.892-1.934-1.302c1.734-1.583,3.088-3.261,4.061-5.033c0.445-0.903,0.732-1.671,0.861-2.305
			c1.172,0.222,2.227,0.497,3.164,0.823c0.316,0.117,0.475,0.269,0.475,0.456c0,0.164-0.105,0.333-0.316,0.508
			c-0.176,0.14-0.381,0.473-0.615,0.998c-0.082,0.187-0.17,0.345-0.264,0.473h8.859l4.535-0.07c0.188,0,0.305,0.023,0.352,0.07
			c0.035,0.047,0.053,0.152,0.053,0.316v2.391c0,0.199-0.023,0.322-0.07,0.369c-0.047,0.035-0.158,0.053-0.334,0.053l-4.535-0.07
			h-3.164c-0.035,1.309-0.141,2.54-0.316,3.695h5.133l4.939-0.07c0.211,0,0.334,0.023,0.369,0.07c0.047,0.035,0.07,0.129,0.07,0.281
			v2.426c0,0.188-0.029,0.299-0.088,0.334c-0.047,0.035-0.164,0.053-0.352,0.053l-4.939-0.07h-3.955
			c1.945,2.614,5.256,4.464,9.932,5.549c-0.598,0.797-1.102,1.629-1.512,2.496c-0.199,0.527-0.41,0.791-0.633,0.791
			c-0.117,0-0.398-0.058-0.844-0.175c-4.254-1.309-7.441-3.588-9.563-6.837c-1.57,3.063-4.535,5.341-8.895,6.837
			c-0.504,0.164-0.791,0.246-0.861,0.246c-0.199,0-0.428-0.264-0.686-0.791c-0.398-0.785-0.967-1.506-1.705-2.162
			c2.719-0.771,4.793-1.652,6.223-2.644c1.289-0.898,2.244-2.001,2.865-3.309H232.136z"/>
		<path fill="#00A33D" d="M263.792,22.828c0.141,0.012,0.275,0.018,0.404,0.018c1.887,0,2.83-0.843,2.83-2.531
			c0-2.12-1.066-4.545-3.199-7.276c1.406-3.069,2.426-5.864,3.059-8.383h-3.604v20.375l0.07,7.735c0,0.246-0.129,0.369-0.387,0.369
			h-2.848c-0.27,0-0.404-0.123-0.404-0.369l0.07-7.7V9.473l-0.07-7.788c0-0.199,0.023-0.316,0.07-0.352s0.158-0.053,0.334-0.053
			l2.883,0.07h4.711c0.34,0,0.58-0.035,0.721-0.105s0.293-0.105,0.457-0.105c0.27,0,0.727,0.346,1.371,1.037
			c0.574,0.656,0.861,1.137,0.861,1.441c0,0.211-0.105,0.428-0.316,0.65c-0.305,0.258-0.533,0.727-0.686,1.406
			c-0.633,2.121-1.559,4.494-2.777,7.118c1.371,1.711,2.268,3.281,2.689,4.71c0.281,0.926,0.422,2.092,0.422,3.498
			c0,3.082-1.564,4.757-4.693,5.026c-0.27,0.023-0.451,0.035-0.545,0.035c-0.281,0-0.457-0.076-0.527-0.229
			c-0.059-0.105-0.105-0.387-0.141-0.844C264.431,24.041,264.179,23.32,263.792,22.828z M266.728,30.41
			c3.105-0.797,5.279-2.144,6.521-4.042c1.102-1.675,1.676-4.048,1.723-7.118c-1.102,0.012-2.08,0.029-2.936,0.053
			c-0.023,0-0.246,0.006-0.668,0.018c-0.105,0-0.176,0-0.211,0c-0.188,0-0.305-0.023-0.352-0.07
			c-0.035-0.047-0.053-0.152-0.053-0.316v-2.549c0-0.211,0.029-0.34,0.088-0.387c0.035-0.035,0.141-0.053,0.316-0.053l4.781,0.07
			h9.58l4.799-0.07c0.188,0,0.299,0.023,0.334,0.07c0.035,0.059,0.053,0.182,0.053,0.369v2.549c0,0.176-0.021,0.284-0.063,0.325
			s-0.148,0.062-0.324,0.062l-4.799-0.07h-1.002v8.719c0,0.645,0.094,1.037,0.281,1.178c0.176,0.141,0.645,0.211,1.406,0.211
			s1.254-0.146,1.477-0.439c0.258-0.34,0.416-1.605,0.475-3.797c0.867,0.48,1.67,0.779,2.408,0.896
			c0.422,0.082,0.68,0.17,0.773,0.264s0.141,0.27,0.141,0.527c0,0.094-0.006,0.229-0.018,0.404c-0.094,1.535-0.287,2.654-0.58,3.357
			c-0.234,0.574-0.604,1.025-1.107,1.354c-0.785,0.551-2.215,0.826-4.289,0.826c-1.887,0-3.076-0.182-3.568-0.545
			c-0.691-0.469-1.037-1.447-1.037-2.936V19.25h-2.268c-0.094,3.808-0.838,6.796-2.232,8.963c-1.289,2.016-3.258,3.58-5.906,4.693
			c-0.457,0.188-0.744,0.281-0.861,0.281c-0.176,0-0.439-0.24-0.791-0.721C268.234,31.67,267.537,30.984,266.728,30.41z
			 M283.146,13.094h-4.816l-3.85,0.07c-0.188,0-0.305-0.023-0.352-0.07c-0.035-0.047-0.053-0.152-0.053-0.317v-1.743h-2.654
			c-0.211,0-0.34-0.023-0.387-0.07c-0.035-0.047-0.053-0.152-0.053-0.317l0.07-3.395V6.25l-0.07-1.812
			c0-0.164,0.029-0.264,0.088-0.299c0.047-0.035,0.164-0.053,0.352-0.053l4.816,0.07h2.197V3.788c0-1.451-0.082-2.609-0.246-3.475
			c1.148,0.023,2.402,0.117,3.762,0.281c0.387,0.035,0.58,0.146,0.58,0.334c0,0.211-0.059,0.433-0.176,0.667
			c-0.141,0.328-0.211,1.035-0.211,2.123v0.438h3.059l4.816-0.07c0.211,0,0.34,0.023,0.387,0.07
			c0.035,0.035,0.053,0.129,0.053,0.281l-0.07,1.548v1.267l0.07,3.395c0,0.188-0.029,0.299-0.088,0.334
			c-0.047,0.035-0.164,0.053-0.352,0.053h-2.654v1.743c0,0.188-0.023,0.299-0.07,0.334s-0.158,0.053-0.334,0.053L283.146,13.094z
			 M274.55,7.25v2.645l3.779,0.07h4.816c2.039,0,3.275-0.023,3.709-0.07V7.25H274.55z"/>
	</g>
	<g>
		<path fill="#00A33D" d="M74.599,57.468c0,0.781-0.201,1.482-0.604,2.104c-0.402,0.623-0.99,1.11-1.765,1.462
			s-1.693,0.528-2.755,0.528c-1.274,0-2.325-0.241-3.152-0.723c-0.584-0.347-1.058-0.809-1.423-1.387
			c-0.364-0.578-0.547-1.14-0.547-1.686c0-0.317,0.109-0.588,0.328-0.814c0.219-0.226,0.498-0.339,0.836-0.339
			c0.274,0,0.506,0.088,0.696,0.264c0.189,0.176,0.352,0.437,0.486,0.783c0.165,0.411,0.342,0.754,0.533,1.029
			c0.191,0.276,0.46,0.503,0.807,0.682c0.347,0.179,0.802,0.269,1.365,0.269c0.775,0,1.405-0.18,1.89-0.541
			c0.485-0.36,0.727-0.811,0.727-1.351c0-0.428-0.131-0.775-0.393-1.042c-0.261-0.267-0.599-0.471-1.014-0.611
			c-0.414-0.141-0.968-0.291-1.661-0.449c-0.925-0.216-1.699-0.47-2.322-0.759s-1.118-0.685-1.483-1.186
			c-0.366-0.5-0.549-1.122-0.549-1.866c0-0.708,0.193-1.338,0.58-1.888c0.387-0.551,0.947-0.974,1.68-1.27
			c0.733-0.295,1.595-0.443,2.585-0.443c0.792,0,1.476,0.098,2.054,0.294s1.057,0.456,1.438,0.78
			c0.381,0.325,0.66,0.666,0.835,1.022c0.176,0.356,0.264,0.705,0.264,1.044c0,0.31-0.11,0.589-0.33,0.837
			c-0.22,0.249-0.494,0.373-0.822,0.373c-0.3,0-0.527-0.073-0.683-0.221s-0.324-0.389-0.506-0.724
			c-0.235-0.491-0.517-0.874-0.846-1.149s-0.858-0.413-1.586-0.413c-0.676,0-1.221,0.148-1.636,0.444
			c-0.414,0.296-0.621,0.652-0.621,1.068c0,0.259,0.07,0.481,0.211,0.669s0.335,0.349,0.582,0.484
			c0.247,0.135,0.497,0.241,0.75,0.317s0.67,0.188,1.251,0.334c0.729,0.17,1.387,0.358,1.978,0.563
			c0.59,0.206,1.092,0.455,1.506,0.748c0.414,0.294,0.736,0.665,0.969,1.113C74.483,56.267,74.599,56.817,74.599,57.468z"/>
		<path fill="#00A33D" d="M86.457,59.883l-0.615-1.618h-5.238l-0.615,1.653c-0.24,0.645-0.445,1.08-0.615,1.306
			c-0.17,0.225-0.448,0.338-0.835,0.338c-0.328,0-0.618-0.12-0.87-0.36s-0.378-0.513-0.378-0.817c0-0.176,0.029-0.358,0.088-0.545
			s0.155-0.448,0.29-0.783l3.296-8.369c0.094-0.24,0.207-0.529,0.338-0.866s0.272-0.617,0.422-0.84s0.346-0.403,0.589-0.541
			s0.543-0.207,0.901-0.207c0.363,0,0.667,0.069,0.91,0.207s0.439,0.315,0.589,0.532s0.275,0.45,0.378,0.699
			s0.233,0.582,0.391,0.998l3.366,8.316c0.264,0.633,0.396,1.094,0.396,1.381c0,0.299-0.125,0.573-0.374,0.822
			c-0.249,0.249-0.549,0.374-0.901,0.374c-0.205,0-0.381-0.037-0.527-0.11s-0.27-0.173-0.369-0.299s-0.207-0.32-0.321-0.581
			S86.539,60.083,86.457,59.883z M81.289,56.313h3.85l-1.942-5.328L81.289,56.313z"/>
		<path fill="#00A33D" d="M95.188,49.819v4.525l5.124-5.353c0.246-0.258,0.456-0.449,0.628-0.572
			c0.173-0.123,0.403-0.185,0.69-0.185c0.375,0,0.678,0.11,0.91,0.33s0.347,0.487,0.347,0.804c0,0.381-0.196,0.76-0.589,1.135
			l-3.173,3.006l3.656,5.24c0.258,0.363,0.451,0.682,0.58,0.954s0.193,0.538,0.193,0.796c0,0.287-0.113,0.536-0.338,0.747
			s-0.532,0.316-0.918,0.316c-0.363,0-0.659-0.078-0.888-0.232c-0.229-0.155-0.422-0.362-0.58-0.619
			c-0.158-0.258-0.299-0.492-0.422-0.703l-3.085-4.742l-2.136,2.046v2.661c0,0.539-0.123,0.938-0.369,1.199
			c-0.246,0.26-0.562,0.391-0.949,0.391c-0.223,0-0.437-0.059-0.642-0.176s-0.363-0.275-0.474-0.475
			c-0.082-0.164-0.132-0.354-0.149-0.571s-0.026-0.531-0.026-0.941v-9.583c0-0.527,0.116-0.923,0.347-1.187s0.546-0.396,0.944-0.396
			c0.393,0,0.71,0.131,0.953,0.392C95.066,48.888,95.188,49.285,95.188,49.819z"/>
		<path fill="#00A33D" d="M115.536,59.883l-0.615-1.618h-5.238l-0.615,1.653c-0.24,0.645-0.445,1.08-0.615,1.306
			c-0.17,0.225-0.448,0.338-0.835,0.338c-0.328,0-0.618-0.12-0.87-0.36s-0.378-0.513-0.378-0.817c0-0.176,0.029-0.358,0.088-0.545
			s0.155-0.448,0.29-0.783l3.296-8.369c0.094-0.24,0.207-0.529,0.338-0.866s0.272-0.617,0.422-0.84s0.346-0.403,0.589-0.541
			s0.543-0.207,0.901-0.207c0.363,0,0.667,0.069,0.91,0.207s0.439,0.315,0.589,0.532s0.275,0.45,0.378,0.699
			s0.233,0.582,0.391,0.998l3.366,8.316c0.264,0.633,0.396,1.094,0.396,1.381c0,0.299-0.125,0.573-0.374,0.822
			c-0.249,0.249-0.549,0.374-0.901,0.374c-0.205,0-0.381-0.037-0.527-0.11s-0.27-0.173-0.369-0.299s-0.207-0.32-0.321-0.581
			S115.618,60.083,115.536,59.883z M110.368,56.313h3.85l-1.942-5.328L110.368,56.313z"/>
		<path fill="#00A33D" d="M121.75,59.971V49.817c0-0.527,0.12-0.923,0.36-1.187s0.55-0.396,0.931-0.396
			c0.392,0,0.71,0.131,0.953,0.392s0.365,0.658,0.365,1.191v10.154c0,0.534-0.122,0.932-0.365,1.196s-0.561,0.396-0.953,0.396
			c-0.375,0-0.684-0.134-0.927-0.4C121.872,60.896,121.75,60.499,121.75,59.971z"/>
		<path fill="#00A33D" d="M136.197,48.453h3.405c0.886,0,1.645,0.082,2.278,0.246c0.633,0.164,1.208,0.471,1.725,0.921
			c1.339,1.15,2.009,2.899,2.009,5.246c0,0.774-0.067,1.481-0.202,2.121c-0.134,0.64-0.342,1.216-0.623,1.729
			s-0.641,0.973-1.079,1.377c-0.346,0.309-0.724,0.557-1.134,0.743c-0.411,0.187-0.852,0.317-1.324,0.394
			c-0.472,0.075-1.004,0.113-1.596,0.113h-3.404c-0.475,0-0.833-0.072-1.073-0.215c-0.241-0.144-0.397-0.346-0.471-0.607
			s-0.11-0.599-0.11-1.016v-9.452c0-0.563,0.126-0.971,0.378-1.223S135.635,48.453,136.197,48.453z M137.208,50.516v8.766h1.98
			c0.434,0,0.774-0.012,1.021-0.035s0.501-0.082,0.766-0.176c0.264-0.094,0.493-0.226,0.687-0.396
			c0.874-0.74,1.312-2.014,1.312-3.823c0-1.274-0.192-2.229-0.577-2.863s-0.858-1.038-1.421-1.211
			c-0.563-0.173-1.244-0.26-2.042-0.26H137.208z"/>
		<path fill="#00A33D" d="M157.8,50.469h-5.88v3.172h5.414c0.398,0,0.696,0.089,0.892,0.268s0.294,0.415,0.294,0.708
			s-0.097,0.532-0.29,0.716s-0.492,0.277-0.896,0.277h-5.414v3.672h6.082c0.41,0,0.719,0.095,0.927,0.284s0.312,0.441,0.312,0.756
			c0,0.303-0.104,0.549-0.312,0.738s-0.517,0.284-0.927,0.284h-7.092c-0.568,0-0.977-0.126-1.226-0.378s-0.373-0.659-0.373-1.223
			v-9.689c0-0.375,0.056-0.682,0.167-0.919s0.285-0.41,0.522-0.519s0.541-0.163,0.91-0.163h6.89c0.416,0,0.725,0.093,0.927,0.277
			s0.303,0.427,0.303,0.726c0,0.305-0.101,0.55-0.303,0.735C158.525,50.376,158.216,50.469,157.8,50.469z"/>
		<path fill="#00A33D" d="M166.127,49.799l5.015,7.592v-7.662c0-0.498,0.106-0.872,0.32-1.121c0.213-0.249,0.5-0.374,0.862-0.374
			c0.374,0,0.668,0.125,0.885,0.374c0.216,0.249,0.324,0.623,0.324,1.121v10.137c0,1.131-0.467,1.697-1.402,1.697
			c-0.234,0-0.444-0.034-0.631-0.101c-0.187-0.067-0.362-0.174-0.525-0.321c-0.164-0.146-0.316-0.318-0.456-0.515
			s-0.28-0.397-0.421-0.602l-4.892-7.508v7.552c0,0.493-0.115,0.865-0.344,1.117s-0.523,0.378-0.882,0.378
			c-0.371,0-0.667-0.128-0.891-0.382c-0.224-0.255-0.335-0.625-0.335-1.112v-9.943c0-0.422,0.047-0.753,0.141-0.994
			c0.111-0.264,0.297-0.479,0.555-0.646s0.538-0.251,0.837-0.251c0.234,0,0.436,0.038,0.604,0.114s0.314,0.179,0.44,0.308
			c0.126,0.129,0.256,0.296,0.388,0.501C165.85,49.362,165.986,49.576,166.127,49.799z"/>
		<path fill="#00A33D" d="M186.164,50.609h-2.848v9.362c0,0.539-0.121,0.939-0.362,1.2c-0.241,0.26-0.552,0.391-0.934,0.391
			c-0.388,0-0.704-0.132-0.948-0.396s-0.366-0.662-0.366-1.195v-9.362h-2.848c-0.445,0-0.776-0.098-0.993-0.295
			c-0.217-0.196-0.325-0.456-0.325-0.779c0-0.334,0.113-0.598,0.338-0.792s0.552-0.291,0.98-0.291h8.305
			c0.451,0,0.787,0.1,1.006,0.299s0.33,0.46,0.33,0.783s-0.111,0.583-0.334,0.779C186.943,50.511,186.609,50.609,186.164,50.609z"/>
		<path fill="#00A33D" d="M198.7,59.883l-0.615-1.618h-5.238l-0.615,1.653c-0.24,0.645-0.445,1.08-0.615,1.306
			c-0.17,0.225-0.448,0.338-0.835,0.338c-0.328,0-0.618-0.12-0.87-0.36s-0.378-0.513-0.378-0.817c0-0.176,0.029-0.358,0.088-0.545
			s0.155-0.448,0.29-0.783l3.296-8.369c0.094-0.24,0.207-0.529,0.338-0.866s0.272-0.617,0.422-0.84s0.346-0.403,0.589-0.541
			s0.543-0.207,0.901-0.207c0.363,0,0.667,0.069,0.91,0.207s0.439,0.315,0.589,0.532s0.275,0.45,0.378,0.699
			s0.233,0.582,0.391,0.998l3.366,8.316c0.264,0.633,0.396,1.094,0.396,1.381c0,0.299-0.125,0.573-0.374,0.822
			c-0.249,0.249-0.549,0.374-0.901,0.374c-0.205,0-0.381-0.037-0.527-0.11s-0.27-0.173-0.369-0.299s-0.207-0.32-0.321-0.581
			S198.782,60.083,198.7,59.883z M193.532,56.313h3.85l-1.942-5.328L193.532,56.313z"/>
		<path fill="#00A33D" d="M207.367,49.817v9.386h5.291c0.422,0,0.746,0.103,0.971,0.307s0.338,0.462,0.338,0.772
			c0,0.316-0.111,0.572-0.334,0.768c-0.223,0.196-0.548,0.294-0.976,0.294h-6.301c-0.568,0-0.977-0.126-1.226-0.378
			s-0.374-0.659-0.374-1.222v-9.927c0-0.527,0.119-0.923,0.356-1.187s0.549-0.396,0.936-0.396c0.393,0,0.71,0.131,0.953,0.392
			S207.367,49.284,207.367,49.817z"/>
		<path fill="#00A33D" d="M233.967,57.278c0,0.41-0.101,0.854-0.304,1.33c-0.201,0.478-0.52,0.945-0.953,1.405
			s-0.987,0.833-1.661,1.119s-1.459,0.43-2.355,0.43c-0.68,0-1.298-0.064-1.854-0.192s-1.063-0.327-1.516-0.599
			c-0.454-0.271-0.871-0.628-1.251-1.07c-0.339-0.405-0.629-0.858-0.868-1.36c-0.24-0.501-0.42-1.037-0.54-1.606
			s-0.18-1.173-0.18-1.813c0-1.039,0.15-1.968,0.452-2.79c0.301-0.821,0.732-1.523,1.293-2.107c0.563-0.584,1.221-1.028,1.977-1.333
			c0.756-0.306,1.562-0.458,2.417-0.458c1.043,0,1.972,0.208,2.786,0.624c0.814,0.416,1.438,0.93,1.872,1.541
			c0.434,0.612,0.65,1.19,0.65,1.735c0,0.299-0.105,0.562-0.316,0.79c-0.211,0.229-0.466,0.343-0.765,0.343
			c-0.334,0-0.584-0.079-0.752-0.238c-0.166-0.158-0.353-0.432-0.558-0.819c-0.34-0.641-0.739-1.12-1.2-1.437
			c-0.459-0.317-1.026-0.476-1.7-0.476c-1.072,0-1.927,0.408-2.562,1.226c-0.637,0.816-0.954,1.978-0.954,3.481
			c0,1.005,0.141,1.841,0.422,2.508s0.68,1.165,1.195,1.494s1.119,0.494,1.811,0.494c0.75,0,1.384-0.187,1.903-0.56
			c0.518-0.373,0.909-0.921,1.173-1.645c0.111-0.341,0.249-0.618,0.413-0.833c0.164-0.214,0.428-0.321,0.791-0.321
			c0.311,0,0.577,0.108,0.8,0.326C233.856,56.685,233.967,56.955,233.967,57.278z"/>
		<path fill="#00A33D" d="M240.276,49.817v9.386h5.291c0.422,0,0.745,0.103,0.972,0.307c0.225,0.205,0.338,0.462,0.338,0.772
			c0,0.316-0.111,0.572-0.334,0.768c-0.223,0.196-0.548,0.294-0.976,0.294h-6.302c-0.568,0-0.977-0.126-1.226-0.378
			s-0.373-0.659-0.373-1.222v-9.927c0-0.527,0.118-0.923,0.355-1.187s0.55-0.396,0.937-0.396c0.392,0,0.709,0.131,0.953,0.392
			C240.154,48.887,240.276,49.284,240.276,49.817z"/>
		<path fill="#00A33D" d="M250.098,59.971V49.817c0-0.527,0.12-0.923,0.36-1.187s0.551-0.396,0.932-0.396
			c0.392,0,0.709,0.131,0.953,0.392c0.242,0.261,0.364,0.658,0.364,1.191v10.154c0,0.534-0.122,0.932-0.364,1.196
			c-0.244,0.264-0.562,0.396-0.953,0.396c-0.375,0-0.685-0.134-0.928-0.4C250.219,60.896,250.098,60.499,250.098,59.971z"/>
		<path fill="#00A33D" d="M260.433,49.799l5.016,7.592v-7.662c0-0.498,0.106-0.872,0.319-1.121s0.501-0.374,0.862-0.374
			c0.374,0,0.669,0.125,0.885,0.374s0.324,0.623,0.324,1.121v10.137c0,1.131-0.468,1.697-1.402,1.697
			c-0.234,0-0.444-0.034-0.631-0.101c-0.188-0.067-0.362-0.174-0.526-0.321c-0.163-0.146-0.315-0.318-0.456-0.515
			c-0.14-0.196-0.28-0.397-0.42-0.602l-4.893-7.508v7.552c0,0.493-0.115,0.865-0.344,1.117c-0.23,0.252-0.523,0.378-0.883,0.378
			c-0.371,0-0.668-0.128-0.892-0.382c-0.224-0.255-0.335-0.625-0.335-1.112v-9.943c0-0.422,0.047-0.753,0.141-0.994
			c0.112-0.264,0.297-0.479,0.556-0.646s0.537-0.251,0.837-0.251c0.235,0,0.437,0.038,0.604,0.114
			c0.168,0.076,0.314,0.179,0.441,0.308c0.126,0.129,0.255,0.296,0.388,0.501C260.156,49.362,260.292,49.576,260.433,49.799z"/>
		<path fill="#00A33D" d="M272.216,59.971V49.817c0-0.527,0.12-0.923,0.36-1.187s0.55-0.396,0.931-0.396
			c0.393,0,0.711,0.131,0.953,0.392c0.244,0.261,0.365,0.658,0.365,1.191v10.154c0,0.534-0.121,0.932-0.365,1.196
			c-0.242,0.264-0.561,0.396-0.953,0.396c-0.375,0-0.684-0.134-0.927-0.4C272.337,60.896,272.216,60.499,272.216,59.971z"/>
		<path fill="#00A33D" d="M290.127,57.278c0,0.41-0.101,0.854-0.304,1.33c-0.201,0.478-0.52,0.945-0.953,1.405
			s-0.987,0.833-1.661,1.119s-1.459,0.43-2.355,0.43c-0.68,0-1.298-0.064-1.854-0.192s-1.063-0.327-1.516-0.599
			c-0.454-0.271-0.871-0.628-1.251-1.07c-0.339-0.405-0.629-0.858-0.868-1.36c-0.24-0.501-0.42-1.037-0.54-1.606
			s-0.18-1.173-0.18-1.813c0-1.039,0.15-1.968,0.452-2.79c0.301-0.821,0.732-1.523,1.293-2.107c0.563-0.584,1.221-1.028,1.977-1.333
			c0.756-0.306,1.562-0.458,2.417-0.458c1.043,0,1.972,0.208,2.786,0.624c0.814,0.416,1.438,0.93,1.872,1.541
			c0.434,0.612,0.65,1.19,0.65,1.735c0,0.299-0.105,0.562-0.316,0.79c-0.211,0.229-0.466,0.343-0.765,0.343
			c-0.334,0-0.584-0.079-0.752-0.238c-0.166-0.158-0.353-0.432-0.558-0.819c-0.34-0.641-0.739-1.12-1.2-1.437
			c-0.459-0.317-1.026-0.476-1.7-0.476c-1.072,0-1.927,0.408-2.562,1.226c-0.637,0.816-0.954,1.978-0.954,3.481
			c0,1.005,0.141,1.841,0.422,2.508s0.68,1.165,1.195,1.494s1.119,0.494,1.811,0.494c0.75,0,1.384-0.187,1.903-0.56
			c0.518-0.373,0.909-0.921,1.173-1.645c0.111-0.341,0.249-0.618,0.413-0.833c0.164-0.214,0.428-0.321,0.791-0.321
			c0.311,0,0.577,0.108,0.8,0.326C290.016,56.685,290.127,56.955,290.127,57.278z"/>
	</g>
	<line fill="none" stroke="#00A33D" stroke-width="0.75" x1="61.396" y1="40.344" x2="294.73" y2="40.344"/>
</g>
<g id="レイヤー_2">
	<path fill="#00A33D" d="M45.361,10.441c-2.99-3.286-6.833-5.33-10.038-5.33c-2.399,0-4.949,1.403-7.189,3.946
		c-0.775,0.885-1.897,1.39-3.071,1.39c-1.182,0-2.298-0.505-3.078-1.39c-2.234-2.542-4.792-3.946-7.183-3.946
		c-3.212,0-7.055,2.044-10.047,5.33c-3.395,3.744-5.107,8.367-4.695,12.686c0.504,5.283,3.339,14.185,7.038,22.153
		c1.838,3.962,3.725,7.324,5.444,9.717c2.406,3.335,3.96,4.035,4.84,4.035c0.375,0,0.713-0.119,1.021-0.353
		c0.898-0.684,1.838-2.223,2.884-4.706c0.643-1.512,2.131-2.496,3.775-2.496s3.128,0.984,3.767,2.496
		c1.052,2.483,1.994,4.022,2.89,4.706c0.304,0.234,0.649,0.353,1.023,0.353l0,0c0.88,0,2.43-0.7,4.834-4.035
		c1.724-2.391,3.606-5.752,5.448-9.717c3.701-7.968,6.531-16.87,7.038-22.153C50.474,18.809,48.764,14.186,45.361,10.441z"/>
</g>
</svg>
